<?xml version="1.0" encoding="UTF-8"?>
<svg xmlns="http://www.w3.org/2000/svg" xmlns:xlink="http://www.w3.org/1999/xlink" width="715.21pt" height="715.21pt" viewBox="0 0 715.21 715.21" version="1.1">
<defs>
<clipPath id="clip1">
  <path d="M 675 39 L 715.210938 39 L 715.210938 79 L 675 79 Z M 675 39 "/>
</clipPath>
</defs>
<g id="surface1">
<path style=" stroke:none;fill-rule:nonzero;fill:rgb(5.488586%,12.156677%,14.892578%);fill-opacity:1;" d="M 256.5625 45.199219 C 245.246094 39.421875 234.054688 34.144531 222.980469 29.375 C 133.914063 -9.058594 64.414063 -9.804688 27.3125 27.320313 C 25.378906 29.253906 23.546875 31.265625 21.816406 33.382813 C 14.246094 42.621094 8.628906 53.53125 5.003906 65.953125 C -6.410156 104.992188 1.722656 158.925781 29.367188 222.988281 C 47.445313 264.90625 72.910156 308.996094 104.277344 353.265625 C 104.660156 344.769531 106.289063 336.617188 109.007813 328.96875 C 82.816406 290.492188 61.375 252.363281 45.652344 215.964844 C 28.15625 175.414063 18.792969 139.378906 17.832031 108.855469 C 17.40625 95.246094 18.675781 83.066406 21.613281 72.378906 C 24.753906 60.960938 29.789063 51.21875 36.714844 43.246094 C 37.71875 42.078125 38.765625 40.949219 39.855469 39.863281 C 54.550781 25.1875 76.011719 17.757813 103.753906 17.757813 C 105.425781 17.757813 107.117188 17.777344 108.847656 17.839844 C 139.371094 18.804688 175.40625 28.164063 215.953125 45.660156 C 224.894531 49.527344 233.914063 53.714844 243.050781 58.265625 C 243.09375 58.285156 243.152344 58.304688 243.191406 58.324219 C 243.597656 57.902344 243.976563 57.480469 244.402344 57.035156 C 244.722656 56.695313 245.066406 56.332031 245.386719 55.988281 C 246.273438 55.0625 247.179688 54.136719 248.085938 53.230469 C 248.628906 52.6875 249.171875 52.144531 249.734375 51.601563 C 250.300781 51.058594 250.882813 50.511719 251.449219 49.96875 C 252.011719 49.445313 252.59375 48.902344 253.179688 48.378906 C 254.328125 47.332031 255.496094 46.285156 256.683594 45.257813 Z M 685.847656 492.222656 C 667.769531 450.347656 642.339844 406.277344 611.015625 362.085938 L 611.015625 393.390625 C 635.035156 429.429688 654.824219 465.101563 669.5625 499.269531 C 687.054688 539.816406 696.398438 575.832031 697.382813 606.351563 C 697.949219 624.210938 695.59375 639.613281 690.335938 652.4375 C 686.734375 661.335938 681.722656 668.984375 675.339844 675.347656 C 673.105469 677.582031 670.707031 679.65625 668.171875 681.527344 C 652.972656 692.863281 632.253906 698.175781 606.363281 697.371094 C 575.84375 696.40625 539.804688 687.042969 499.257813 669.550781 C 460.039063 652.636719 418.851563 629.0625 377.355469 600.09375 L 346.976563 600.09375 C 350.519531 602.730469 354.0625 605.285156 357.605469 607.84375 C 403.308594 640.640625 448.929688 667.152344 492.234375 685.835938 C 537.570313 705.425781 577.855469 715.210938 611.359375 715.210938 C 627.523438 715.210938 642.101563 712.933594 654.902344 708.382813 C 666.257813 704.359375 676.226563 698.539063 684.679688 690.910156 C 685.765625 689.945313 686.835938 688.9375 687.882813 687.890625 C 694.304688 681.46875 699.578125 674.097656 703.726563 665.824219 C 723.636719 626.183594 717.636719 565.90625 685.847656 492.222656 "/>
<path style=" stroke:none;fill-rule:nonzero;fill:rgb(5.488586%,12.156677%,14.892578%);fill-opacity:1;" d="M 711.378906 70.304688 C 708.476563 58.625 703.90625 48.179688 697.664063 39.117188 C 694.769531 34.890625 691.503906 30.945313 687.882813 27.320313 C 650.777344 -9.804688 581.300781 -9.058594 492.230469 29.375 C 481.121094 34.164063 469.886719 39.460938 458.511719 45.257813 C 459.035156 45.722656 459.539063 46.164063 460.039063 46.605469 C 460.222656 46.769531 460.402344 46.929688 460.585938 47.089844 C 461.230469 47.675781 461.894531 48.257813 462.539063 48.84375 C 462.738281 49.042969 462.9375 49.222656 463.160156 49.425781 C 463.664063 49.890625 464.148438 50.351563 464.652344 50.835938 C 465.316406 51.480469 465.980469 52.101563 466.625 52.769531 C 466.664063 52.789063 466.6875 52.808594 466.726563 52.847656 C 467.046875 53.148438 467.351563 53.472656 467.671875 53.792969 C 467.855469 53.976563 468.035156 54.175781 468.234375 54.359375 C 468.859375 54.980469 469.480469 55.625 470.089844 56.269531 C 470.488281 56.695313 470.871094 57.117188 471.296875 57.558594 C 471.535156 57.820313 471.757813 58.082031 472 58.324219 C 481.179688 53.753906 490.261719 49.546875 499.257813 45.660156 C 539.808594 28.164063 575.84375 18.804688 606.363281 17.839844 C 636.5625 16.890625 659.777344 24.300781 675.339844 39.863281 C 677.253906 41.753906 679.023438 43.769531 680.675781 45.902344 C 687.578125 54.761719 692.371094 65.550781 695.007813 78.234375 C 696.941406 87.457031 697.726563 97.683594 697.382813 108.855469 C 696.398438 139.378906 687.058594 175.414063 669.5625 215.960938 C 653.839844 252.363281 632.394531 290.511719 606.203125 328.988281 C 608.898438 336.636719 610.550781 344.789063 610.9375 353.265625 C 642.300781 308.996094 667.746094 264.90625 685.847656 222.988281 C 712.484375 161.28125 721 108.957031 711.378906 70.304688 M 337.835938 600.09375 C 296.363281 629.0625 255.152344 652.636719 215.953125 669.550781 C 175.40625 687.042969 139.371094 696.40625 108.851563 697.371094 C 78.628906 698.320313 55.4375 690.910156 39.855469 675.347656 C 38.304688 673.796875 36.855469 672.1875 35.464844 670.496094 C 28.519531 661.980469 23.585938 651.550781 20.726563 639.328125 C 18.414063 629.503906 17.445313 618.492188 17.828125 606.351563 C 18.796875 575.832031 28.15625 539.816406 45.652344 499.269531 C 60.390625 465.101563 80.179688 429.429688 104.199219 393.390625 L 104.199219 362.085938 C 72.871094 406.296875 47.445313 450.347656 29.367188 492.222656 C 2.328125 554.894531 -6.046875 607.882813 4.300781 646.699219 C 7.480469 658.71875 12.472656 669.367188 19.257813 678.546875 C 21.714844 681.851563 24.394531 684.972656 27.3125 687.890625 C 45.53125 706.109375 71.542969 715.210938 103.835938 715.210938 C 137.355469 715.210938 177.640625 705.40625 222.980469 685.835938 C 266.285156 667.152344 311.886719 640.640625 357.605469 607.84375 C 361.148438 605.285156 364.691406 602.730469 368.234375 600.09375 "/>
<path style=" stroke:none;fill-rule:nonzero;fill:rgb(5.488586%,12.156677%,14.892578%);fill-opacity:1;" d="M 404.242188 166.4375 C 404.242188 192.195313 383.367188 213.070313 357.609375 213.070313 C 331.855469 213.070313 310.972656 192.195313 310.972656 166.4375 C 310.972656 140.683594 331.855469 119.804688 357.609375 119.804688 C 383.367188 119.804688 404.242188 140.683594 404.242188 166.4375 "/>
<path style=" stroke:none;fill-rule:nonzero;fill:rgb(5.488586%,12.156677%,14.892578%);fill-opacity:1;" d="M 448.222656 490.347656 C 443.996094 496.933594 433.769531 493.910156 433.769531 486.082031 C 433.769531 484.53125 434.210938 483.0625 435.054688 481.8125 C 444.296875 467.4375 449.671875 450.367188 449.671875 432.046875 C 449.671875 377.769531 402.523438 334.34375 347.078125 340.523438 C 304.253906 345.335938 270.109375 379.984375 265.964844 422.90625 C 261.050781 473.457031 297.351563 516.804688 345.144531 523.265625 L 345.144531 513.964844 C 345.144531 510.90625 348.425781 509.03125 351.042969 510.542969 L 381.242188 527.9375 C 383.820313 529.445313 383.820313 533.230469 381.242188 534.722656 L 351.042969 552.136719 C 348.425781 553.664063 345.144531 551.773438 345.144531 548.734375 L 345.144531 539.089844 C 289.617188 532.746094 246.917969 484.148438 249.957031 426.246094 C 252.777344 372.351563 296.121094 328.203125 349.957031 324.476563 C 412.949219 320.167969 465.414063 369.976563 465.414063 432.046875 C 465.414063 453.546875 459.09375 473.558594 448.222656 490.347656 M 418.589844 399.128906 C 415.75 400.941406 408.140625 405.8125 404.3125 408.207031 C 401.796875 409.820313 399.28125 411.390625 396.765625 413 L 385.671875 419.925781 L 374.535156 426.789063 C 371.15625 428.90625 367.773438 431.039063 364.390625 433.214844 C 364.089844 433.394531 363.808594 433.554688 363.546875 433.738281 C 362.660156 434.300781 361.792969 434.84375 360.910156 435.367188 C 360.101563 435.871094 359.175781 436.113281 358.25 436.113281 C 357.324219 436.113281 356.398438 435.871094 355.574219 435.367188 C 354.707031 434.84375 353.84375 434.300781 352.976563 433.738281 C 352.835938 433.675781 352.675781 433.574219 352.53125 433.476563 L 352.152344 433.214844 C 348.746094 431.039063 345.347656 428.90625 341.945313 426.789063 L 330.828125 419.925781 L 319.757813 413 C 317.160156 411.347656 314.582031 409.71875 311.984375 408.085938 C 308.222656 405.710938 300.730469 400.921875 297.914063 399.128906 C 297.289063 398.726563 297.089844 397.921875 297.46875 397.277344 C 297.710938 396.832031 298.175781 396.570313 298.660156 396.570313 C 298.878906 396.570313 299.082031 396.632813 299.28125 396.734375 C 302.28125 398.28125 310.273438 402.429688 314.261719 404.523438 C 316.917969 405.933594 319.578125 407.324219 322.234375 408.710938 L 333.769531 414.851563 L 345.265625 421.054688 C 349.332031 423.226563 353.117188 425.199219 356.800781 427.113281 C 357.746094 427.597656 358.792969 427.597656 359.679688 427.132813 C 363.464844 425.179688 367.351563 423.125 371.257813 421.054688 L 382.753906 414.851563 L 394.269531 408.710938 C 396.984375 407.300781 399.683594 405.871094 402.402344 404.464844 C 406.347656 402.371094 414.238281 398.28125 417.199219 396.734375 C 417.863281 396.390625 418.667969 396.632813 419.03125 397.277344 C 419.394531 397.921875 419.210938 398.726563 418.589844 399.128906 M 357.425781 58.644531 C 416.9375 58.644531 465.214844 106.925781 465.214844 166.4375 C 465.214844 225.96875 416.9375 274.246094 357.425781 274.246094 C 297.871094 274.246094 249.617188 225.96875 249.617188 166.4375 C 249.617188 106.925781 297.871094 58.644531 357.425781 58.644531 M 471.820313 58.324219 C 471.558594 58.082031 471.335938 57.800781 471.09375 57.558594 C 470.671875 57.136719 470.289063 56.695313 469.886719 56.269531 C 469.28125 55.625 468.679688 55.003906 468.035156 54.359375 L 467.46875 53.792969 C 467.167969 53.492188 466.847656 53.148438 466.523438 52.847656 C 466.484375 52.808594 466.464844 52.789063 466.441406 52.746094 C 465.777344 52.121094 465.113281 51.480469 464.449219 50.835938 C 463.96875 50.351563 463.464844 49.890625 462.960938 49.425781 C 462.738281 49.222656 462.558594 49.042969 462.335938 48.863281 C 461.691406 48.257813 461.046875 47.652344 460.402344 47.089844 C 460.203125 46.929688 460.019531 46.769531 459.859375 46.628906 C 459.355469 46.164063 458.832031 45.722656 458.308594 45.257813 C 431.191406 22.003906 395.960938 7.953125 357.425781 7.953125 C 318.910156 7.953125 283.699219 21.984375 256.5625 45.199219 C 256.539063 45.21875 256.519531 45.238281 256.5 45.257813 C 255.3125 46.285156 254.125 47.332031 252.976563 48.378906 C 252.394531 48.921875 251.808594 49.425781 251.246094 49.96875 C 250.703125 50.511719 250.117188 51.058594 249.535156 51.621094 C 248.972656 52.164063 248.449219 52.6875 247.882813 53.230469 C 246.976563 54.136719 246.09375 55.042969 245.207031 55.988281 C 244.863281 56.351563 244.523438 56.695313 244.199219 57.035156 C 243.816406 57.4375 243.433594 57.859375 243.050781 58.265625 C 243.03125 58.285156 243.011719 58.304688 242.992188 58.324219 C 217.746094 85.925781 202.324219 122.6875 202.324219 163.035156 L 202.324219 600.09375 L 512.507813 600.09375 L 512.507813 163.035156 C 512.507813 122.6875 497.066406 85.925781 471.820313 58.324219 "/>
<path style=" stroke:none;fill-rule:nonzero;fill:rgb(5.488586%,12.156677%,14.892578%);fill-opacity:1;" d="M 604.914063 110.347656 C 589.753906 105.617188 573.628906 114.070313 568.898438 129.210938 C 565.414063 140.40625 569.101563 152.101563 577.355469 159.390625 L 533.265625 265.527344 L 530.222656 272.878906 C 529.035156 272.816406 527.867188 272.796875 526.699219 272.796875 L 526.699219 600.09375 C 549.972656 600.09375 571.050781 590.648438 586.3125 575.390625 C 601.574219 560.148438 611.015625 539.070313 611.015625 515.777344 L 611.015625 357.113281 C 611.015625 355.824219 610.996094 354.535156 610.9375 353.265625 C 610.550781 344.789063 608.898438 336.636719 606.203125 328.988281 C 600.105469 311.773438 588.605469 297.136719 573.730469 287.132813 L 599.660156 166.355469 C 610.59375 165.066406 620.296875 157.535156 623.78125 146.363281 C 628.511719 131.203125 620.054688 115.078125 604.914063 110.347656 "/>
<path style=" stroke:none;fill-rule:nonzero;fill:rgb(5.488586%,12.156677%,14.892578%);fill-opacity:1;" d="M 141.472656 287.132813 L 141.464844 287.132813 C 126.597656 297.148438 115.097656 311.777344 109.011719 328.972656 C 106.296875 336.621094 104.664063 344.773438 104.28125 353.265625 C 104.21875 354.542969 104.195313 355.820313 104.195313 357.113281 L 104.195313 515.773438 C 104.195313 539.0625 113.632813 560.144531 128.894531 575.394531 C 144.152344 590.652344 165.234375 600.09375 188.515625 600.09375 L 188.515625 272.796875 C 187.324219 272.796875 186.160156 272.820313 184.984375 272.875 L 181.929688 265.519531 L 137.835938 159.382813 C 146.097656 152.109375 149.785156 140.398438 146.289063 129.21875 C 141.5625 114.074219 125.433594 105.621094 110.289063 110.347656 C 95.136719 115.078125 86.679688 131.207031 91.417969 146.359375 C 94.90625 157.539063 104.601563 165.0625 115.53125 166.347656 L 141.472656 287.125 "/>
<g clip-path="url(#clip1)" clip-rule="nonzero">
<path style=" stroke:none;fill-rule:nonzero;fill:rgb(5.488586%,12.156677%,14.892578%);fill-opacity:1;" d="M 715.207031 58.640625 C 715.207031 69.472656 706.425781 78.253906 695.597656 78.253906 C 684.765625 78.253906 675.980469 69.472656 675.980469 58.640625 C 675.980469 47.808594 684.765625 39.027344 695.597656 39.027344 C 706.425781 39.027344 715.207031 47.808594 715.207031 58.640625 "/>
</g>
<path style=" stroke:none;fill-rule:nonzero;fill:rgb(5.488586%,12.156677%,14.892578%);fill-opacity:1;" d="M 39.226563 658.933594 C 39.226563 669.765625 30.445313 678.546875 19.613281 678.546875 C 8.78125 678.546875 0 669.765625 0 658.933594 C 0 648.101563 8.78125 639.320313 19.613281 639.320313 C 30.445313 639.320313 39.226563 648.101563 39.226563 658.933594 "/>
<path style=" stroke:none;fill-rule:nonzero;fill:rgb(5.488586%,12.156677%,14.892578%);fill-opacity:1;" d="M 704.515625 671.285156 C 704.515625 682.117188 695.734375 690.898438 684.902344 690.898438 C 674.070313 690.898438 665.289063 682.117188 665.289063 671.285156 C 665.289063 660.457031 674.070313 651.675781 684.902344 651.675781 C 695.734375 651.675781 704.515625 660.457031 704.515625 671.285156 "/>
<path style=" stroke:none;fill-rule:nonzero;fill:rgb(5.488586%,12.156677%,14.892578%);fill-opacity:1;" d="M 39.226563 52.863281 C 39.226563 63.695313 30.445313 72.476563 19.613281 72.476563 C 8.78125 72.476563 0 63.695313 0 52.863281 C 0 42.03125 8.78125 33.25 19.613281 33.25 C 30.445313 33.25 39.226563 42.03125 39.226563 52.863281 "/>
</g>
</svg>
